<svg width="20" height="20" viewBox="0 0 20 20" fill="none" xmlns="http://www.w3.org/2000/svg">
<rect width="20" height="20" rx="10" fill="#EAEAEA"/>
<path d="M9.31543 11.75C9.31543 11.575 9.32793 11.425 9.36543 11.275C9.39043 11.1375 9.45293 11 9.52793 10.8625C9.60293 10.7375 9.71543 10.6 9.84043 10.4625C9.96543 10.325 10.1404 10.175 10.3404 10C10.6529 9.725 10.9029 9.475 11.0779 9.2375C11.2529 9.0125 11.3529 8.7625 11.3529 8.5C11.3529 8.175 11.2279 7.8875 10.9904 7.6625C10.7404 7.4375 10.4154 7.3125 10.0029 7.3125C9.57793 7.3125 9.25293 7.4375 9.01543 7.675C8.76543 7.9125 8.65293 8.225 8.65293 8.625H7.25293C7.25293 8.275 7.31543 7.95 7.45293 7.6375C7.57793 7.3375 7.76543 7.0625 8.00293 6.8375C8.24043 6.6125 8.52793 6.4375 8.86543 6.3125C9.20293 6.1875 9.57793 6.1125 10.0029 6.1125C10.4279 6.1125 10.8029 6.175 11.1529 6.3C11.4904 6.425 11.7779 6.5875 12.0154 6.8C12.2529 7.025 12.4404 7.275 12.5654 7.5625C12.6904 7.8625 12.7529 8.175 12.7529 8.5C12.7529 8.9875 12.6279 9.4 12.3904 9.7375C12.1529 10.0875 11.8529 10.4125 11.4904 10.7375C11.2154 10.9875 11.0029 11.1875 10.8779 11.3375C10.7529 11.5 10.6904 11.7 10.6904 11.9375V12.1875H9.31543V11.75ZM10.0029 15.1375C9.71543 15.1375 9.47793 15.05 9.29043 14.85C9.09043 14.6625 9.00293 14.425 9.00293 14.1375C9.00293 13.85 9.09043 13.6125 9.29043 13.425C9.47793 13.2375 9.71543 13.1375 10.0029 13.1375C10.2779 13.1375 10.5154 13.2375 10.7154 13.425C10.9029 13.6125 11.0029 13.85 11.0029 14.1375C11.0029 14.425 10.9029 14.6625 10.7154 14.85C10.5154 15.05 10.2779 15.1375 10.0029 15.1375Z" fill="#0E0E0E" fill-opacity="0.4"/>
</svg>
